<svg preserveAspectRatio="none" overflow="visible" style="display: block;" width="20.8046" height="16.6667" viewBox="0 0 20.8046 16.6667" fill="none" xmlns="http://www.w3.org/2000/svg">
<path id="Vector" fill-rule="evenodd" clip-rule="evenodd" d="M2.01841 12.4853C2.01841 12.408 1.97607 12.338 1.91424 12.2917L1.66633 12.1052C0.956997 11.5731 0.435921 10.8286 0.178887 9.97991C-0.0781461 9.13125 -0.0577322 8.22272 0.23716 7.38646L0.88091 5.55937C1.45479 3.93367 2.51877 2.52598 3.92619 1.53029C5.33362 0.534609 7.01522 -5.00591e-05 8.73924 3.51537e-09H12.1872C13.9871 4.78181e-06 15.7386 0.58278 17.1798 1.66114C18.6209 2.7395 19.6741 4.25548 20.182 5.98229L20.6351 7.52083C20.8749 8.3357 20.86 9.20441 20.5923 10.0106C20.3245 10.8167 19.8168 11.5218 19.1372 12.0312L18.7892 12.2917C18.7274 12.338 18.6851 12.408 18.6851 12.4853V12.9385C18.6848 13.9274 18.2918 14.8757 17.5925 15.5748C16.8931 16.2739 15.9448 16.6667 14.9559 16.6667H14.8747C14.0773 16.6663 13.2953 16.4465 12.6146 16.0312C11.9338 15.616 11.3805 15.0213 11.0153 14.3125L10.9945 14.2719C10.9347 14.1562 10.8439 14.0594 10.7322 13.9924C10.6206 13.9253 10.4924 13.8908 10.3622 13.8925C10.232 13.8942 10.1048 13.9322 9.99498 14.0022C9.88513 14.0721 9.79693 14.1713 9.74029 14.2885C9.39628 15.0008 8.85848 15.6017 8.18858 16.0224C7.51868 16.443 6.74379 16.6663 5.95279 16.6667H5.76841C4.77385 16.6667 3.82002 16.2716 3.11676 15.5683C2.4135 14.8651 2.01841 13.9112 2.01841 12.9167V12.4853ZM2.84549 6.25313C3.27586 5.0338 4.07382 3.97797 5.1294 3.23116C6.18497 2.48435 7.4462 2.08331 8.73924 2.08333H12.1872C13.537 2.08338 14.8506 2.52045 15.9314 3.32916C17.0122 4.13788 17.8021 5.27478 18.183 6.56979L18.6361 8.10937C18.7186 8.38949 18.7413 8.68383 18.7027 8.97329C18.6569 9.31726 18.2291 9.29555 18.0647 8.98998C17.6906 8.29489 17.1614 7.69041 16.5138 7.22594C15.6284 6.59098 14.5663 6.24965 13.4767 6.25H7.22674C6.14883 6.24957 5.09733 6.58359 4.21727 7.20599C3.56921 7.66432 3.03762 8.26239 2.65914 8.95175C2.50483 9.23282 2.1093 9.23349 2.08764 8.91358C2.06847 8.63058 2.1073 8.34664 2.20174 8.07917L2.84549 6.25313ZM8.26841 7.8125C8.26841 7.67437 8.32328 7.54189 8.42096 7.44421C8.51863 7.34654 8.65111 7.29167 8.78924 7.29167H11.9142C12.0524 7.29167 12.1849 7.34654 12.2825 7.44421C12.3802 7.54189 12.4351 7.67437 12.4351 7.8125C12.4351 7.95063 12.3802 8.08311 12.2825 8.18078C12.1849 8.27846 12.0524 8.33333 11.9142 8.33333H8.78924C8.65111 8.33333 8.51863 8.27846 8.42096 8.18078C8.32328 8.08311 8.26841 7.95063 8.26841 7.8125Z" fill="#8FA1B7"/>
</svg>
